<svg version="1.1" id="Warstwa_1" xmlns="http://www.w3.org/2000/svg" x="0" y="0" viewBox="0 0 271.1 150.9" xml:space="preserve"><style>.st1{fill:#f49f23}</style><linearGradient id="XMLID_2_" gradientUnits="userSpaceOnUse" x1="13.498" y1="62.16" x2="256.102" y2="62.16"><stop offset="0" stop-color="#cb8524" stop-opacity=".99"/><stop offset=".101" stop-color="#ffd95f" stop-opacity=".99"/><stop offset=".5" stop-color="#d88a03"/><stop offset=".9" stop-color="#ffd44a"/><stop offset="1" stop-color="#ca8424"/></linearGradient><path id="XMLID_758_" d="M193.9 0c-34.3 0-62.2 27.9-62.2 62.2 0 21.3 10.8 40.1 27.2 51.3-7.3 3.4-15.3 5.3-23.9 5.3-31.3 0-56.7-25.4-56.7-56.7V2.7c0-1.5-1.2-2.7-2.7-2.7-34.2 0-62.1 27.9-62.1 62.2s27.9 62.2 62.2 62.2h59.5c10.6 0 20.7-2.7 29.4-7.4 8.8 4.7 18.8 7.4 29.4 7.4 34.3 0 62.2-27.9 62.2-62.2S228.2 0 193.9 0zm-56.7 62.2c0-30.5 24.3-55.5 54.6-56.7v56.6c0 20.5-11 38.5-27.3 48.5-16.4-10-27.3-28-27.3-48.4zm-61.5 56.7C44.4 118.9 19 93.5 19 62.2 19 31.8 43 7 73 5.6v56.7c0 25.2 15.1 47 36.7 56.7l-34-.1zm118.2 0c-8.6 0-16.7-1.9-23.9-5.3 16.4-11.2 27.2-30.1 27.2-51.4V5.6C227 7.3 250.7 32 250.7 62.2c0 31.2-25.5 56.7-56.8 56.7z" fill="url(#XMLID_2_)"/><g id="XMLID_734_"><path id="XMLID_745_" class="st1" d="M0 144.9c0-3.2 2.3-6 5.9-6 1.1 0 2 .2 2.7.6v1.8c-.7-.5-1.5-.9-2.7-.9-2.6 0-4.3 2.1-4.3 4.5s1.7 4.5 4.3 4.5c1.2 0 2.1-.3 2.7-.9v1.8c-.8.4-1.7.6-2.7.6-3.6 0-5.9-2.8-5.9-6z"/><path id="XMLID_743_" class="st1" d="M14 139.1h1.6v11.6H14v-11.6z"/><path id="XMLID_740_" class="st1" d="M27.9 148.2h-5l-1 2.5h-1.7l5.1-11.8h.2l5.1 11.8h-1.7l-1-2.5zm-.6-1.5l-1.9-4.5-1.9 4.5h3.8z"/><path id="XMLID_738_" class="st1" d="M41.4 149.2v1.5h-5.9v-5.5l-1.2.5v-1.6l1.2-.5v-4.5h1.6v3.9l1.9-.8v1.6l-1.9.8v4.6h4.3z"/><path id="XMLID_735_" class="st1" d="M45.2 144.9c0-3.2 2.4-6 6-6s5.9 2.8 5.9 6-2.4 6-5.9 6c-3.6 0-6-2.8-6-6zm10.4 0c0-2.4-1.8-4.4-4.4-4.4-2.6 0-4.4 2.1-4.4 4.4 0 2.4 1.7 4.5 4.4 4.5 2.6 0 4.4-2.1 4.4-4.5z"/></g><g id="XMLID_723_"><path id="XMLID_732_" class="st1" d="M92.9 146.8v-7.7h1.6v7.5c0 1.8 1 2.7 2.5 2.7s2.5-.9 2.5-2.7v-7.5h1.6v7.7c0 2.5-1.5 4.1-4 4.1-2.7 0-4.2-1.6-4.2-4.1z"/><path id="XMLID_730_" class="st1" d="M117 150.7l-1.6-7.4-3.2 7.6h-.2l-3.2-7.5-1.5 7.4h-1.6l2.6-11.8h.2l3.7 8.8 3.6-8.8h.2l2.7 11.8-1.7-.1z"/><path id="XMLID_728_" class="st1" d="M127.3 146.6v4.1h-1.6v-4.1l-3.9-7.5h1.8l2.9 5.9 3-5.9h1.8l-4 7.5z"/><path id="XMLID_726_" class="st1" d="M134.8 148.9l1.1-1.1c.6.9 1.6 1.6 2.7 1.6 1.2 0 1.9-.7 1.9-1.6 0-2.8-5.4-2-5.4-5.8 0-1.7 1.4-3 3.4-3 1.5 0 2.7.8 3.4 1.7l-1 1.1c-.6-.6-1.4-1.2-2.3-1.2-1.1 0-1.8.6-1.8 1.5 0 2.5 5.4 1.9 5.4 5.8 0 1.7-1.4 3.1-3.6 3.1-1.6-.1-3-1-3.8-2.1z"/><path id="XMLID_724_" class="st1" d="M153.7 149.2v1.5h-5.9v-5.5l-1.2.5v-1.6l1.2-.5v-4.5h1.6v3.9l1.9-.8v1.6l-1.9.8v4.6h4.3z"/></g><g id="XMLID_707_"><path id="XMLID_720_" class="st1" d="M190.2 144.9c0-3.2 2.4-6 6-6s5.9 2.8 5.9 6-2.4 6-5.9 6c-3.7 0-6-2.8-6-6zm10.3 0c0-2.4-1.8-4.4-4.4-4.4-2.6 0-4.4 2.1-4.4 4.4 0 2.4 1.7 4.5 4.4 4.5 2.6 0 4.4-2.1 4.4-4.5z"/><path id="XMLID_717_" class="st1" d="M216.6 144.9c0 3.2-2.2 5.8-5.8 5.8h-3v-11.6h3c3.6 0 5.8 2.6 5.8 5.8zm-1.6 0c0-2.4-1.6-4.2-4.2-4.2h-1.5v8.5h1.5c2.6 0 4.2-2 4.2-4.3z"/><path id="XMLID_714_" class="st1" d="M231.1 144.9c0 3.2-2.2 5.8-5.8 5.8h-3v-11.6h3c3.6 0 5.8 2.6 5.8 5.8zm-1.6 0c0-2.4-1.6-4.2-4.2-4.2h-1.5v8.5h1.5c2.6 0 4.2-2 4.2-4.3z"/><path id="XMLID_712_" class="st1" d="M238.3 140.6v3.4h3.7v1.5h-3.7v3.6h4.8v1.5h-6.4V139h6.4v1.5l-4.8.1z"/><path id="XMLID_710_" class="st1" d="M248.1 144.9c0-3.2 2.3-6 5.9-6 1.1 0 2 .2 2.7.6v1.8c-.7-.5-1.5-.9-2.7-.9-2.6 0-4.3 2.1-4.3 4.5s1.7 4.5 4.3 4.5c1.2 0 2.1-.3 2.7-.9v1.8c-.8.4-1.7.6-2.7.6-3.5 0-5.9-2.8-5.9-6z"/><path id="XMLID_708_" class="st1" d="M271.1 139.1v11.6h-1.6v-5.1h-5.7v5.1h-1.6v-11.6h1.6v5h5.7v-5h1.6z"/></g><circle id="XMLID_706_" class="st1" cx="171.9" cy="144.9" r="2.5"/><circle id="XMLID_705_" class="st1" cx="74.9" cy="144.9" r="2.5"/></svg>