<?xml version="1.0" encoding="utf-8"?>
<!-- Generator: Adobe Illustrator 23.0.6, SVG Export Plug-In . SVG Version: 6.00 Build 0)  -->
<svg version="1.1" id="Warstwa_1" xmlns="http://www.w3.org/2000/svg" xmlns:xlink="http://www.w3.org/1999/xlink" x="0px" y="0px"
	 viewBox="0 0 271.1 150.9" style="enable-background:new 0 0 271.1 150.9;" xml:space="preserve">
<style type="text/css">
	.st0{fill:url(#XMLID_2_);}
	.st1{fill:#F49F23;}
</style>
<linearGradient id="XMLID_2_" gradientUnits="userSpaceOnUse" x1="13.4981" y1="62.1602" x2="256.1016" y2="62.1602">
	<stop  offset="0" style="stop-color:#CB8524;stop-opacity:0.99"/>
	<stop  offset="0.1013" style="stop-color:#FFD95F;stop-opacity:0.99"/>
	<stop  offset="0.5" style="stop-color:#D88A03"/>
	<stop  offset="0.9" style="stop-color:#FFD44A"/>
	<stop  offset="1" style="stop-color:#CA8424"/>
</linearGradient>
<path id="XMLID_758_" class="st0" d="M193.9,0c-34.3,0-62.2,27.9-62.2,62.2c0,21.3,10.8,40.1,27.2,51.3c-7.3,3.4-15.3,5.3-23.9,5.3
	c-31.3,0-56.7-25.4-56.7-56.7l0-59.2v0V2.8c0,0,0,0,0,0c0,0,0,0,0-0.1c0-1.5-1.2-2.7-2.7-2.7C41.4,0,13.5,27.9,13.5,62.2
	s27.9,62.2,62.2,62.2l58.9,0c0,0,0.1,0,0.1,0c0.2,0,0.3,0,0.5,0c10.6,0,20.7-2.7,29.4-7.4c8.8,4.7,18.8,7.4,29.4,7.4
	c34.3,0,62.2-27.9,62.2-62.2S228.2,0,193.9,0z M137.2,62.2c0-30.5,24.3-55.5,54.6-56.7l0,56.6c0,20.5-11,38.5-27.3,48.5
	C148.1,100.6,137.2,82.6,137.2,62.2z M75.7,118.9c-31.3,0-56.7-25.4-56.7-56.7c0-30.4,24-55.2,54-56.6l0,56.6v0v0.1
	c0,25.2,15.1,47,36.7,56.7L75.7,118.9z M193.9,118.9c-8.6,0-16.7-1.9-23.9-5.3c16.4-11.2,27.2-30.1,27.2-51.4l0-56.6
	C227,7.3,250.7,32,250.7,62.2C250.7,93.4,225.2,118.9,193.9,118.9z"/>
<g id="XMLID_734_">
	<path id="XMLID_745_" class="st1" d="M0,144.9c0-3.2,2.3-6,5.9-6c1.1,0,2,0.2,2.7,0.6l0,1.8c-0.7-0.5-1.5-0.9-2.7-0.9
		c-2.6,0-4.3,2.1-4.3,4.5c0,2.4,1.7,4.5,4.3,4.5c1.2,0,2.1-0.3,2.7-0.9l0,1.8c-0.8,0.4-1.7,0.6-2.7,0.6C2.3,150.9,0,148.1,0,144.9z"
		/>
	<path id="XMLID_743_" class="st1" d="M14,139.1h1.6l0,11.6l-1.6,0L14,139.1z"/>
	<path id="XMLID_740_" class="st1" d="M27.9,148.2l-5,0l-1,2.5l-1.7,0l5.1-11.8h0.2l5.1,11.8l-1.7,0L27.9,148.2z M27.3,146.7
		l-1.9-4.5l-1.9,4.5L27.3,146.7z"/>
	<path id="XMLID_738_" class="st1" d="M41.4,149.2l0,1.5l-5.9,0l0-5.5l-1.2,0.5l0-1.6l1.2-0.5l0-4.5l1.6,0l0,3.9l1.9-0.8l0,1.6
		l-1.9,0.8l0,4.6L41.4,149.2z"/>
	<path id="XMLID_735_" class="st1" d="M45.2,144.9c0-3.2,2.4-6,6-6c3.6,0,5.9,2.8,5.9,6c0,3.2-2.4,6-5.9,6
		C47.6,150.9,45.2,148.1,45.2,144.9z M55.6,144.9c0-2.4-1.8-4.4-4.4-4.4c-2.6,0-4.4,2.1-4.4,4.4c0,2.4,1.7,4.5,4.4,4.5
		C53.8,149.4,55.6,147.3,55.6,144.9z"/>
</g>
<g id="XMLID_723_">
	<path id="XMLID_732_" class="st1" d="M92.9,146.8l0-7.7l1.6,0l0,7.5c0,1.8,1,2.7,2.5,2.7c1.5,0,2.5-0.9,2.5-2.7l0-7.5h1.6l0,7.7
		c0,2.5-1.5,4.1-4,4.1C94.4,150.9,92.9,149.3,92.9,146.8z"/>
	<path id="XMLID_730_" class="st1" d="M117,150.7l-1.6-7.4l-3.2,7.6l-0.2,0l-3.2-7.5l-1.5,7.4h-1.6l2.6-11.8h0.2l3.7,8.8l3.6-8.8
		h0.2l2.7,11.8L117,150.7z"/>
	<path id="XMLID_728_" class="st1" d="M127.3,146.6l0,4.1l-1.6,0l0-4.1l-3.9-7.5l1.8,0l2.9,5.9l3-5.9l1.8,0L127.3,146.6z"/>
	<path id="XMLID_726_" class="st1" d="M134.8,148.9l1.1-1.1c0.6,0.9,1.6,1.6,2.7,1.6c1.2,0,1.9-0.7,1.9-1.6c0-2.8-5.4-2-5.4-5.8
		c0-1.7,1.4-3,3.4-3c1.5,0,2.7,0.8,3.4,1.7l-1,1.1c-0.6-0.6-1.4-1.2-2.3-1.2c-1.1,0-1.8,0.6-1.8,1.5c0,2.5,5.4,1.9,5.4,5.8
		c0,1.7-1.4,3.1-3.6,3.1C137,150.9,135.6,150,134.8,148.9z"/>
	<path id="XMLID_724_" class="st1" d="M153.7,149.2l0,1.5l-5.9,0l0-5.5l-1.2,0.5l0-1.6l1.2-0.5l0-4.5l1.6,0l0,3.9l1.9-0.8l0,1.6
		l-1.9,0.8l0,4.6L153.7,149.2z"/>
</g>
<g id="XMLID_707_">
	<path id="XMLID_720_" class="st1" d="M190.2,144.9c0-3.2,2.4-6,6-6c3.6,0,5.9,2.8,5.9,6c0,3.2-2.4,6-5.9,6
		C192.5,150.9,190.2,148.1,190.2,144.9z M200.5,144.9c0-2.4-1.8-4.4-4.4-4.4c-2.6,0-4.4,2.1-4.4,4.4c0,2.4,1.7,4.5,4.4,4.5
		C198.7,149.4,200.5,147.3,200.5,144.9z"/>
	<path id="XMLID_717_" class="st1" d="M216.6,144.9c0,3.2-2.2,5.8-5.8,5.8l-3,0l0-11.6l3,0C214.4,139.1,216.6,141.7,216.6,144.9z
		 M215,144.9c0-2.4-1.6-4.2-4.2-4.2l-1.5,0l0,8.5h1.5C213.4,149.2,215,147.2,215,144.9z"/>
	<path id="XMLID_714_" class="st1" d="M231.1,144.9c0,3.2-2.2,5.8-5.8,5.8l-3,0l0-11.6l3,0C228.9,139.1,231.1,141.7,231.1,144.9z
		 M229.5,144.9c0-2.4-1.6-4.2-4.2-4.2l-1.5,0l0,8.5l1.5,0C227.9,149.2,229.5,147.2,229.5,144.9z"/>
	<path id="XMLID_712_" class="st1" d="M238.3,140.6l0,3.4l3.7,0l0,1.5l-3.7,0l0,3.6l4.8,0v1.5l-6.4,0l0-11.6l6.4,0v1.5L238.3,140.6z
		"/>
	<path id="XMLID_710_" class="st1" d="M248.1,144.9c0-3.2,2.3-6,5.9-6c1.1,0,2,0.2,2.7,0.6v1.8c-0.7-0.5-1.5-0.9-2.7-0.9
		c-2.6,0-4.3,2.1-4.3,4.5c0,2.4,1.7,4.5,4.3,4.5c1.2,0,2.1-0.3,2.7-0.9v1.8c-0.8,0.4-1.7,0.6-2.7,0.6
		C250.5,150.9,248.1,148.1,248.1,144.9z"/>
	<path id="XMLID_708_" class="st1" d="M271.1,139.1l0,11.6h-1.6l0-5.1l-5.7,0v5.1h-1.6l0-11.6l1.6,0l0,5l5.7,0l0-5L271.1,139.1z"/>
</g>
<circle id="XMLID_706_" class="st1" cx="171.9" cy="144.9" r="2.5"/>
<circle id="XMLID_705_" class="st1" cx="74.9" cy="144.9" r="2.5"/>
</svg>
