<?xml version="1.0" encoding="utf-8"?>
<!-- Generator: Adobe Illustrator 23.0.6, SVG Export Plug-In . SVG Version: 6.00 Build 0)  -->
<svg version="1.1" id="Warstwa_1" xmlns="http://www.w3.org/2000/svg" xmlns:xlink="http://www.w3.org/1999/xlink" x="0px" y="0px"
	 viewBox="0 0 6.8 10.6" style="enable-background:new 0 0 6.8 10.6;" xml:space="preserve">
<path d="M6.6,5.9c0.2-0.2,0.2-0.3,0.2-0.6c0-0.2-0.1-0.4-0.2-0.6L2.1,0.2C1.9,0.1,1.7,0,1.5,0C1.3,0,1.1,0.1,1,0.2L0.2,1
	C0.1,1.2,0,1.3,0,1.6C0,1.8,0.1,2,0.2,2.1l3.2,3.2L0.2,8.5C0.1,8.7,0,8.8,0,9.1c0,0.2,0.1,0.4,0.2,0.6L1,10.4
	c0.2,0.2,0.3,0.2,0.6,0.2c0.2,0,0.4-0.1,0.6-0.2L6.6,5.9z"/>
</svg>
