<?xml version="1.0" encoding="utf-8"?>
<!-- Generator: Adobe Illustrator 23.0.6, SVG Export Plug-In . SVG Version: 6.00 Build 0)  -->
<svg version="1.1" id="Warstwa_1" xmlns="http://www.w3.org/2000/svg" xmlns:xlink="http://www.w3.org/1999/xlink" x="0px" y="0px"
	 viewBox="0 0 14.9 14.9" style="enable-background:new 0 0 14.9 14.9;" xml:space="preserve">
<path d="M14.4,0.5C14.1,0.2,13.7,0,13.3,0H1.6C1.2,0,0.8,0.2,0.5,0.5C0.2,0.8,0,1.2,0,1.6v11.7c0,0.4,0.2,0.8,0.5,1.1
	c0.3,0.3,0.7,0.5,1.1,0.5h6.5V9h-2V6.7h2V5.1c0-0.9,0.3-1.7,0.8-2.2c0.5-0.5,1.2-0.8,2.1-0.8c0.7,0,1.3,0,1.7,0.1v2h-1.2
	c-0.4,0-0.7,0.1-0.9,0.3c-0.1,0.2-0.2,0.4-0.2,0.8v1.4h2.3L12.5,9h-2v5.9h2.8c0.4,0,0.8-0.2,1.1-0.5c0.3-0.3,0.5-0.7,0.5-1.1V1.6
	C14.9,1.2,14.7,0.8,14.4,0.5z"/>
</svg>
