<?xml version="1.0" encoding="utf-8"?>
<!-- Generator: Adobe Illustrator 23.0.6, SVG Export Plug-In . SVG Version: 6.00 Build 0)  -->
<svg version="1.1" id="Warstwa_1" xmlns="http://www.w3.org/2000/svg" xmlns:xlink="http://www.w3.org/1999/xlink" x="0px" y="0px"
	 viewBox="0 0 19.1 14.9" style="enable-background:new 0 0 19.1 14.9;" xml:space="preserve">
<path d="M16.2,9.3c0-0.1,0-0.2-0.1-0.3L9.8,3.9C9.7,3.8,9.6,3.8,9.5,3.8s-0.2,0-0.3,0.1L3,9C3,9.1,2.9,9.2,2.9,9.3v4.7
	c0,0.2,0.1,0.4,0.2,0.6c0.2,0.2,0.3,0.2,0.6,0.2h3.9c0.1,0,0.2,0,0.3-0.1C7.9,14.7,8,14.6,8,14.5v-3.7c0-0.1,0-0.2,0.1-0.3
	c0.1-0.1,0.2-0.1,0.3-0.1h2.4c0.1,0,0.2,0,0.3,0.1c0.1,0.1,0.1,0.2,0.1,0.3v3.7c0,0.1,0,0.2,0.1,0.3c0.1,0.1,0.2,0.1,0.3,0.1h3.9
	c0.2,0,0.4-0.1,0.6-0.2c0.2-0.2,0.2-0.3,0.2-0.6V9.3z M19,7.3c0.1,0.1,0.1,0.2,0.1,0.3c0,0.1,0,0.2-0.1,0.3l-0.8,1
	C18.1,9,18,9,17.9,9s-0.2,0-0.3-0.1L9.8,2.5C9.7,2.5,9.6,2.4,9.5,2.4s-0.2,0-0.3,0.1L1.5,8.9C1.4,9,1.3,9,1.2,9S1,9,0.9,8.9l-0.8-1
	C0,7.8,0,7.7,0,7.6s0-0.2,0.1-0.3l8.4-6.9C8.8,0.1,9.2,0,9.5,0s0.7,0.1,1,0.4l3,2.5V0.4c0-0.1,0-0.2,0.1-0.3C13.7,0,13.8,0,13.9,0
	h1.9c0.1,0,0.2,0,0.3,0.1c0.1,0.1,0.1,0.2,0.1,0.3V5L19,7.3z"/>
</svg>
