<?xml version="1.0" encoding="utf-8"?>
<!-- Generator: Adobe Illustrator 23.0.6, SVG Export Plug-In . SVG Version: 6.00 Build 0)  -->
<svg version="1.1" id="Warstwa_1" xmlns="http://www.w3.org/2000/svg" xmlns:xlink="http://www.w3.org/1999/xlink" x="0px" y="0px"
	 viewBox="0 0 14.9 14.9" style="enable-background:new 0 0 14.9 14.9;" xml:space="preserve">
<path d="M9.3,4.1c0.6,0.3,1.1,0.8,1.4,1.4c0.3,0.6,0.5,1.2,0.5,1.9c0,0.7-0.2,1.3-0.5,1.9c-0.3,0.6-0.8,1.1-1.4,1.4
	c-0.6,0.3-1.2,0.5-1.9,0.5c-0.7,0-1.3-0.2-1.9-0.5c-0.6-0.3-1.1-0.8-1.4-1.4C3.8,8.8,3.6,8.1,3.6,7.4c0-0.7,0.2-1.3,0.5-1.9
	c0.3-0.6,0.8-1.1,1.4-1.4c0.6-0.3,1.2-0.5,1.9-0.5C8.1,3.6,8.8,3.8,9.3,4.1z M9.2,9.2c0.5-0.5,0.7-1.1,0.7-1.8
	c0-0.7-0.2-1.3-0.7-1.8C8.7,5.2,8.1,4.9,7.4,4.9c-0.7,0-1.3,0.2-1.8,0.7C5.2,6.2,4.9,6.8,4.9,7.4c0,0.7,0.2,1.3,0.7,1.8
	c0.5,0.5,1.1,0.7,1.8,0.7C8.1,9.9,8.7,9.7,9.2,9.2z M12.1,2.8c-0.2-0.2-0.4-0.3-0.6-0.3c-0.2,0-0.5,0.1-0.6,0.3
	c-0.2,0.2-0.3,0.4-0.3,0.6c0,0.2,0.1,0.5,0.3,0.6c0.2,0.2,0.4,0.3,0.6,0.3c0.2,0,0.4-0.1,0.6-0.3c0.2-0.2,0.3-0.4,0.3-0.6
	C12.3,3.2,12.2,3,12.1,2.8z M14.9,7.4c0,1.4,0,2.5,0,3.1c0,0.6-0.1,1.2-0.3,1.6c-0.2,0.6-0.5,1-0.9,1.4c-0.4,0.4-0.9,0.7-1.4,0.9
	c-0.5,0.2-1,0.2-1.6,0.3c-0.6,0-1.7,0-3.1,0c-1.4,0-2.5,0-3.1,0s-1.2-0.1-1.6-0.3c-0.6-0.2-1-0.5-1.4-0.9c-0.4-0.4-0.7-0.9-0.9-1.4
	c-0.2-0.5-0.2-1-0.3-1.6c0-0.6,0-1.7,0-3.1C0,6,0,5,0,4.3s0.1-1.2,0.3-1.6c0.2-0.6,0.5-1,0.9-1.4c0.4-0.4,0.9-0.7,1.4-0.9
	c0.5-0.2,1-0.2,1.6-0.3S6,0,7.4,0c1.4,0,2.5,0,3.1,0c0.6,0,1.2,0.1,1.6,0.3c0.6,0.2,1,0.5,1.4,0.9c0.4,0.4,0.7,0.9,0.9,1.4
	c0.2,0.5,0.3,1,0.3,1.7C14.9,5,14.9,6,14.9,7.4z M13.5,10c0-0.5,0-1.2,0-2.1V6.9c0-0.9,0-1.6,0-2.1c0-0.8-0.1-1.4-0.3-1.8
	c-0.3-0.7-0.7-1.2-1.4-1.4c-0.4-0.1-1-0.2-1.8-0.3c-0.5,0-1.2,0-2.1,0H6.9c-0.9,0-1.6,0-2.1,0C4,1.4,3.4,1.5,3.1,1.6
	C2.4,1.9,1.9,2.4,1.6,3.1C1.5,3.4,1.4,4,1.4,4.8c0,0.5,0,1.2,0,2.1V8c0,0.9,0,1.6,0,2.1c0,0.8,0.1,1.4,0.3,1.8
	c0.3,0.7,0.8,1.2,1.4,1.4c0.4,0.1,1,0.2,1.8,0.3c0.5,0,1.2,0,2.1,0H8c0.9,0,1.6,0,2.1,0c0.8,0,1.4-0.1,1.8-0.3
	c0.7-0.3,1.2-0.8,1.4-1.4C13.4,11.4,13.5,10.8,13.5,10L13.5,10z"/>
</svg>
